<svg width="156" height="42" viewBox="0 0 156 42" fill="none" xmlns="http://www.w3.org/2000/svg">
<path d="M72.853 39.01V40.93C72.853 41.035 72.781 41.108 72.66 41.108H72.21C72.1632 41.1072 72.1186 41.0881 72.0857 41.0549C72.0528 41.0216 72.0342 40.9768 72.034 40.93V35.616C72.034 35.526 72.114 35.438 72.211 35.438H72.411C72.491 35.438 72.54 35.47 72.572 35.559L72.668 35.802C72.986 35.5116 73.4023 35.3526 73.833 35.357C74.853 35.357 75.583 36.24 75.583 37.309C75.583 38.403 74.813 39.269 73.801 39.269C73.319 39.269 72.917 39.051 72.853 39.01ZM72.837 38.224C72.837 38.224 73.198 38.5 73.697 38.5C74.299 38.5 74.781 37.981 74.781 37.31C74.781 36.645 74.363 36.126 73.728 36.126C73.19 36.126 72.869 36.539 72.837 36.653V38.224ZM76.202 38.022C76.202 37.333 76.732 36.815 77.688 36.815C78.074 36.815 78.435 36.928 78.435 36.928C78.451 36.337 78.306 36.07 77.841 36.07C77.415 36.07 76.997 36.191 76.805 36.248C76.692 36.272 76.62 36.199 76.595 36.094L76.523 35.786C76.499 35.656 76.556 35.6 76.643 35.567C76.708 35.543 77.238 35.357 77.921 35.357C79.11 35.357 79.222 36.077 79.222 37.009V39.002C79.2203 39.0485 79.2011 39.0926 79.1683 39.1256C79.1355 39.1586 79.0915 39.178 79.045 39.18H78.78C78.708 39.18 78.668 39.148 78.628 39.05L78.539 38.8C78.339 38.994 77.969 39.27 77.399 39.27C76.7 39.27 76.202 38.8 76.202 38.022ZM76.989 38.014C76.989 38.346 77.182 38.605 77.568 38.605C77.937 38.605 78.314 38.338 78.427 38.152V37.528C78.379 37.495 78.09 37.398 77.752 37.398C77.319 37.398 76.989 37.625 76.989 38.014ZM80.314 39.002V35.616C80.314 35.526 80.394 35.438 80.491 35.438H80.684C80.756 35.438 80.828 35.494 80.844 35.568L80.949 35.908C81.013 35.81 81.399 35.357 82.073 35.357C82.427 35.357 82.868 35.454 82.748 35.705L82.555 36.11C82.507 36.215 82.411 36.24 82.33 36.2C82.2234 36.1541 82.109 36.1289 81.993 36.126C81.447 36.126 81.15 36.564 81.117 36.629V39.002C81.117 39.164 81.013 39.18 80.86 39.18H80.491C80.444 39.1795 80.3992 39.1605 80.3661 39.1272C80.3329 39.0939 80.3143 39.0489 80.314 39.002ZM83.664 38.152V36.126H83.238C83.191 36.1255 83.1462 36.1065 83.1131 36.0732C83.08 36.0399 83.0612 35.995 83.061 35.948V35.616C83.0599 35.5924 83.0637 35.5688 83.0721 35.5468C83.0806 35.5247 83.0936 35.5047 83.1103 35.488C83.1269 35.4712 83.1469 35.4581 83.1689 35.4495C83.1908 35.4409 83.2144 35.437 83.238 35.438H83.663V34.393C83.663 34.296 83.743 34.215 83.84 34.215H84.298C84.394 34.215 84.467 34.295 84.467 34.393V35.438H85.447C85.543 35.438 85.623 35.511 85.623 35.616V35.948C85.623 36.038 85.543 36.126 85.446 36.126H84.466V38.119C84.466 38.435 84.587 38.499 84.764 38.499C84.997 38.499 85.222 38.403 85.358 38.322C85.471 38.257 85.543 38.322 85.575 38.402L85.72 38.783C85.76 38.881 85.72 38.945 85.631 39.003C85.479 39.099 85.045 39.269 84.603 39.269C83.864 39.269 83.663 38.816 83.663 38.152H83.664ZM88.161 37.301C88.161 36.248 89.012 35.357 90.057 35.357C91.093 35.357 91.944 36.247 91.944 37.301C91.944 38.371 91.093 39.269 90.057 39.269C89.012 39.269 88.161 38.37 88.161 37.301ZM88.948 37.301C88.948 37.99 89.43 38.5 90.057 38.5C90.675 38.5 91.157 37.99 91.157 37.301C91.157 36.629 90.675 36.126 90.057 36.126C89.43 36.126 88.948 36.629 88.948 37.301ZM93.148 39.002V36.192H92.667C92.6197 36.1915 92.5745 36.1722 92.5414 36.1385C92.5082 36.1048 92.4897 36.0593 92.49 36.012V35.616C92.4889 35.5924 92.4927 35.5688 92.5011 35.5468C92.5096 35.5247 92.5226 35.5047 92.5393 35.488C92.5559 35.4712 92.5759 35.4581 92.5979 35.4495C92.6198 35.4409 92.6434 35.437 92.667 35.438H93.149V35.008C93.149 34.004 93.623 33.428 94.522 33.428C95.02 33.428 95.405 33.648 95.574 33.801C95.638 33.858 95.646 33.955 95.606 34.012L95.373 34.352C95.317 34.442 95.229 34.45 95.133 34.385C94.9604 34.2594 94.7514 34.1937 94.538 34.198C94.12 34.198 93.952 34.538 93.952 35.008V35.438H95.004C95.1 35.438 95.181 35.511 95.181 35.616V36.013C95.181 36.103 95.101 36.191 95.004 36.191H93.952V39.002C93.9503 39.0485 93.9311 39.0926 93.8983 39.1256C93.8655 39.1586 93.8215 39.178 93.775 39.18H93.325C93.2787 39.1778 93.2349 39.1582 93.2023 39.1253C93.1697 39.0923 93.1507 39.0483 93.149 39.002H93.148Z" fill="#141A26"/>
<path fill-rule="evenodd" clip-rule="evenodd" d="M118.244 33.382C118.244 32.957 118.584 32.612 119.004 32.612C119.424 32.612 119.766 32.957 119.766 33.382C119.766 33.807 119.424 34.152 119.004 34.152C118.904 34.1513 118.804 34.1309 118.712 34.0919C118.619 34.0528 118.535 33.9959 118.465 33.9244C118.394 33.8529 118.338 33.7682 118.3 33.6751C118.262 33.5821 118.243 33.4825 118.244 33.382ZM105.746 38.171C105.09 38.171 104.635 37.646 104.635 36.895C104.635 36.145 105.09 35.62 105.746 35.62C106.406 35.62 106.866 36.145 106.866 36.895C106.866 37.658 106.416 38.171 105.746 38.171ZM105.746 34.499C104.359 34.499 103.352 35.507 103.352 36.895C103.352 38.284 104.359 39.292 105.746 39.292C107.139 39.292 108.15 38.284 108.15 36.895C108.15 35.507 107.139 34.499 105.746 34.499ZM116.769 37.015C116.721 36.9213 116.659 36.8348 116.587 36.758L116.545 36.713L116.589 36.67C116.659 36.5951 116.724 36.5145 116.781 36.429L118.005 34.593H116.519L115.599 36.029C115.547 36.106 115.441 36.145 115.284 36.145H115.074V33.43C115.074 32.887 114.739 32.813 114.377 32.813H113.757V39.222H115.074V37.299H115.198C115.348 37.299 115.45 37.317 115.498 37.399L116.224 38.782C116.427 39.157 116.629 39.222 117.01 39.222H118.019L117.267 37.967L116.769 37.015ZM123.162 34.488C122.492 34.488 122.065 34.788 121.825 35.042L121.745 35.124L121.717 35.013C121.647 34.741 121.41 34.591 121.053 34.591H120.463L120.466 39.22H121.774V37.087C121.774 36.877 121.801 36.697 121.856 36.532C122.001 36.032 122.408 35.722 122.915 35.722C123.324 35.722 123.483 35.939 123.483 36.5V38.516C123.483 38.996 123.703 39.22 124.178 39.22H124.801L124.799 36.276C124.799 35.106 124.233 34.488 123.162 34.488ZM119.02 34.593H118.4L118.405 38.173V39.221H119.066L119.09 39.222L119.398 39.221H119.705V39.219H119.707L119.709 35.296C119.709 34.823 119.485 34.593 119.021 34.593H119.02ZM110.884 38.171C110.229 38.171 109.772 37.646 109.772 36.895C109.772 36.145 110.229 35.62 110.884 35.62C111.543 35.62 112.004 36.145 112.004 36.895C112.004 37.658 111.554 38.171 110.884 38.171ZM110.884 34.499C109.495 34.499 108.488 35.507 108.488 36.895C108.488 38.284 109.495 39.292 110.884 39.292C112.275 39.292 113.288 38.284 113.288 36.895C113.288 35.507 112.275 34.499 110.884 34.499ZM127.557 37.968C126.842 37.968 126.587 37.338 126.587 36.748C126.587 36.489 126.653 35.642 127.488 35.642C127.904 35.642 128.458 35.762 128.458 36.792C128.458 37.764 127.968 37.968 127.558 37.968H127.557ZM129.137 34.581C128.888 34.581 128.697 34.681 128.601 34.863L128.565 34.933L128.505 34.881C128.293 34.696 127.915 34.478 127.3 34.478C126.077 34.478 125.254 35.404 125.254 36.783C125.254 38.161 126.105 39.123 127.325 39.123C127.741 39.123 128.07 39.025 128.331 38.826L128.432 38.749V38.878C128.432 39.497 128.036 39.838 127.317 39.838C126.967 39.838 126.65 39.751 126.437 39.674C126.16 39.59 125.997 39.659 125.885 39.94L125.781 40.2L125.634 40.578L125.725 40.627C126.185 40.873 126.784 41.02 127.325 41.02C128.439 41.02 129.74 40.445 129.74 38.826L129.744 34.581H129.137ZM100.875 38.118H99.81V36.833C99.81 36.558 99.915 36.416 100.148 36.383H100.875C101.393 36.383 101.728 36.713 101.728 37.246C101.728 37.794 101.401 38.118 100.875 38.118ZM99.81 34.654V34.316C99.81 34.021 99.934 33.88 100.206 33.862H100.751C101.219 33.862 101.498 34.144 101.498 34.616C101.498 34.976 101.307 35.396 100.768 35.396H99.81V34.654ZM102.235 35.936L102.042 35.826L102.21 35.682C102.406 35.512 102.733 35.132 102.733 34.472C102.733 33.466 101.958 32.816 100.76 32.816H99.236C99.0637 32.8227 98.9006 32.8955 98.7807 33.0194C98.6607 33.1433 98.5932 33.3086 98.592 33.481V39.198H100.787C102.12 39.198 102.98 38.466 102.98 37.333C102.98 36.723 102.702 36.201 102.235 35.936ZM130.258 38.504C130.258 38.078 130.598 37.734 131.018 37.734C131.438 37.734 131.78 38.078 131.78 38.504C131.78 38.929 131.438 39.274 131.018 39.274C130.918 39.2733 130.818 39.2529 130.726 39.2139C130.633 39.1748 130.549 39.1179 130.479 39.0464C130.408 38.9749 130.352 38.8902 130.314 38.7971C130.276 38.7041 130.257 38.6045 130.258 38.504ZM138.923 38.171C138.267 38.171 137.81 37.646 137.81 36.895C137.81 36.145 138.267 35.62 138.923 35.62C139.581 35.62 140.043 36.145 140.043 36.895C140.043 37.658 139.592 38.171 138.923 38.171ZM138.923 34.499C137.534 34.499 136.527 35.507 136.527 36.895C136.527 38.284 137.534 39.292 138.923 39.292C140.314 39.292 141.327 38.284 141.327 36.895C141.327 35.507 140.314 34.499 138.923 34.499ZM147.17 34.503C146.628 34.503 146.103 34.76 145.766 35.189L145.671 35.311L145.597 35.175C145.354 34.729 144.937 34.503 144.357 34.503C143.749 34.503 143.342 34.845 143.153 35.049L143.028 35.184L142.981 35.006C142.911 34.75 142.685 34.608 142.342 34.608H141.792L141.787 39.218H143.037V37.184C143.037 37.006 143.058 36.829 143.103 36.644C143.223 36.153 143.55 35.624 144.101 35.677C144.441 35.71 144.606 35.974 144.606 36.486V39.219H145.864V37.184C145.864 36.961 145.884 36.794 145.934 36.627C146.036 36.157 146.378 35.677 146.91 35.677C147.294 35.677 147.437 35.896 147.437 36.486V38.545C147.437 39.011 147.643 39.219 148.104 39.219H148.692L148.693 36.276C148.693 35.1 148.18 34.503 147.17 34.503ZM135.804 37.618C135.8 37.623 135.263 38.194 134.555 38.194C133.91 38.194 133.259 37.796 133.259 36.905C133.259 36.135 133.764 35.598 134.487 35.598C134.722 35.598 134.988 35.683 135.03 35.825L135.036 35.85C135.133 36.173 135.424 36.19 135.482 36.19L136.166 36.191V35.588C136.166 34.792 135.162 34.503 134.486 34.503C133.042 34.503 131.994 35.517 131.994 36.914C131.994 38.311 133.031 39.324 134.46 39.324C135.7 39.324 136.375 38.502 136.381 38.494L136.417 38.449L135.875 37.541L135.805 37.618" fill="#141A26"/>
<path fill-rule="evenodd" clip-rule="evenodd" d="M153.648 16.223C153.921 16.223 154.082 16.1 154.082 15.877C154.082 15.674 153.972 15.541 153.668 15.541H153.385V16.223H153.648ZM152.971 15.196H153.738C154.162 15.196 154.526 15.369 154.526 15.856C154.527 15.9759 154.492 16.0934 154.425 16.1932C154.359 16.293 154.264 16.3706 154.153 16.416L154.617 17.261H154.153L153.798 16.549H153.385V17.261H152.971V15.196ZM155.201 16.253C155.201 15.298 154.546 14.616 153.699 14.616C152.85 14.616 152.204 15.298 152.204 16.253C152.204 17.22 152.85 17.88 153.699 17.88C154.546 17.88 155.202 17.22 155.202 16.253H155.201ZM151.8 16.253C151.8 15.063 152.658 14.25 153.699 14.25C154.748 14.25 155.606 15.063 155.606 16.253C155.606 17.443 154.748 18.257 153.699 18.257C152.658 18.257 151.799 17.443 151.799 16.253H151.8ZM139.135 24.386C139.26 24.3847 139.379 24.3345 139.467 24.2463C139.556 24.1581 139.606 24.0388 139.607 23.914V22.169C139.606 22.0446 139.557 21.9254 139.469 21.8372C139.381 21.7489 139.262 21.6986 139.138 21.697H139.063C138.851 21.697 138.64 21.485 138.64 21.271V10.931C138.64 10.695 138.405 10.459 138.171 10.459H136.446C136.212 10.459 135.978 10.695 135.978 10.931V22.386L135.984 22.684C135.984 23.537 136.831 24.389 137.677 24.389L139.135 24.386ZM63.21 13.19C65.557 13.19 67.538 15.193 67.538 17.568C67.538 19.964 65.596 21.909 63.21 21.909C60.835 21.909 58.904 19.964 58.904 17.568C58.904 15.154 60.835 13.19 63.21 13.19ZM63.21 10.433C59.327 10.433 56.167 13.633 56.167 17.568C56.167 21.548 59.259 24.667 63.21 24.667C67.172 24.667 70.275 21.548 70.275 17.567C70.275 13.634 67.105 10.433 63.21 10.433ZM119.412 21.559C119.285 21.924 118.518 22.61 117.645 22.61C116.729 22.61 116.218 22.052 116.218 21.215C116.218 20.335 116.835 19.799 117.964 19.799C118.752 19.799 119.412 20.099 119.412 20.099V21.559ZM118.262 14.242C116.665 14.242 115.11 14.649 114.897 14.735C114.684 14.799 114.492 14.971 114.577 15.336L114.791 16.452C114.833 16.752 115.025 16.988 115.344 16.881C115.92 16.709 117.219 16.516 118.114 16.516C119.157 16.516 119.519 17.117 119.476 18.383C119.476 18.383 118.582 18.104 117.581 18.104C115.089 18.104 113.661 19.456 113.661 21.215C113.661 23.34 115.025 24.605 116.984 24.605C117.556 24.6138 118.124 24.5083 118.654 24.2946C119.184 24.081 119.667 23.7636 120.073 23.361V23.894C120.073 24.152 120.286 24.366 120.542 24.366H120.715C120.735 24.3692 120.755 24.3706 120.775 24.37H121.5C121.624 24.3684 121.743 24.3181 121.831 24.2298C121.919 24.1416 121.968 24.0224 121.969 23.898V18.555C121.969 15.851 121.329 14.242 118.262 14.242ZM100.382 14.242C98.496 14.242 97.581 15.261 97.215 15.672V14.928C97.2142 14.8036 97.1647 14.6844 97.077 14.5962C96.9892 14.5079 96.8704 14.4576 96.746 14.456H95.632C95.5075 14.4573 95.3885 14.5076 95.3008 14.5959C95.213 14.6842 95.1635 14.8035 95.163 14.928V23.898C95.1674 24.0213 95.2182 24.1383 95.3051 24.2258C95.392 24.3133 95.5088 24.3648 95.632 24.37H97.208C97.677 24.37 97.826 24.262 97.826 23.898V18.233C98.06 17.546 98.678 16.688 99.956 16.688C101.148 16.688 101.659 17.482 101.659 18.769V23.898C101.659 24.155 101.873 24.37 102.129 24.37H103.853C103.976 24.3648 104.093 24.3133 104.18 24.2258C104.267 24.1383 104.318 24.0213 104.322 23.898V18.769C104.322 16.366 103.512 14.242 100.382 14.242ZM76.93 22.16C75.694 22.16 74.885 21.602 74.885 21.602V18.06C75.098 17.502 75.78 16.687 77.058 16.687C78.591 16.687 79.379 18.039 79.379 19.433C79.379 20.828 78.549 22.159 76.929 22.159L76.93 22.16ZM77.42 14.242C75.396 14.242 74.274 15.632 74.207 15.719V14.929C74.2065 14.8044 74.157 14.685 74.0693 14.5965C73.9816 14.508 73.8626 14.4576 73.738 14.456H72.691C72.5668 14.4578 72.4482 14.5083 72.3607 14.5965C72.2732 14.6847 72.2238 14.8037 72.223 14.928V27.931C72.2271 28.0543 72.2776 28.1714 72.3644 28.2591C72.4511 28.3468 72.5678 28.3985 72.691 28.404H74.417C74.651 28.404 74.885 28.167 74.885 27.931V24.198C75.332 24.37 76.27 24.606 77.249 24.606C80.189 24.606 82.127 22.331 82.127 19.434C82.127 16.43 80.103 14.242 77.42 14.242ZM147.66 18.168C147.618 17.202 146.851 16.451 145.765 16.451C144.572 16.451 143.805 17.181 143.678 18.168H147.66ZM145.83 14.241C148.385 14.241 150.344 16.151 150.344 18.833C150.344 18.983 150.323 19.326 150.302 19.477C150.29 19.5955 150.236 19.7059 150.15 19.7884C150.064 19.8708 149.952 19.92 149.833 19.927H143.529C143.55 21.15 144.551 22.223 145.979 22.223C146.958 22.223 147.639 21.858 148.087 21.493C148.321 21.3 148.577 21.279 148.726 21.493L149.556 22.609C149.726 22.802 149.748 23.039 149.514 23.253C148.498 24.1341 147.195 24.6148 145.85 24.605C142.911 24.605 140.866 22.245 140.866 19.412C140.866 16.623 142.911 14.242 145.829 14.242L145.83 14.241ZM129.16 22.16C127.882 22.16 127.2 21.344 126.987 20.786V17.246C126.987 17.246 127.797 16.688 129.032 16.688C130.651 16.688 131.482 18.018 131.482 19.413C131.482 20.808 130.693 22.16 129.16 22.16ZM129.394 14.242C128.414 14.242 127.434 14.478 126.987 14.671V10.894C126.983 10.7707 126.932 10.6537 126.845 10.5662C126.758 10.4787 126.641 10.4272 126.518 10.422H124.793C124.559 10.422 124.325 10.658 124.325 10.894V23.898C124.329 24.0211 124.38 24.138 124.467 24.2255C124.553 24.3129 124.67 24.3645 124.793 24.37H125.539C125.553 24.37 125.567 24.37 125.581 24.366H125.781C125.906 24.3649 126.025 24.3149 126.113 24.2265C126.201 24.1382 126.251 24.0188 126.252 23.894V23.161L126.262 23.125C126.262 23.125 127.392 24.605 129.542 24.605C132.227 24.605 134.165 22.245 134.165 19.413C134.165 16.516 132.312 14.242 129.394 14.242ZM114.324 10.422H104.306C104.253 10.4223 104.2 10.433 104.151 10.4537C104.102 10.4743 104.057 10.5044 104.019 10.5423C103.982 10.5802 103.952 10.6251 103.932 10.6745C103.912 10.7238 103.902 10.7767 103.902 10.83V12.59C103.902 12.804 104.072 12.997 104.306 12.997H107.92V23.962C107.923 24.0687 107.967 24.1704 108.042 24.2461C108.117 24.3219 108.218 24.3662 108.325 24.37H110.305C110.412 24.3665 110.513 24.3223 110.589 24.2465C110.664 24.1707 110.708 24.0689 110.711 23.962V12.997H114.324C114.377 12.9969 114.43 12.9862 114.48 12.9656C114.529 12.945 114.574 12.9149 114.611 12.877C114.649 12.8391 114.679 12.7942 114.699 12.7448C114.719 12.6953 114.729 12.6424 114.729 12.589V10.83C114.729 10.7766 114.719 10.7237 114.699 10.6742C114.679 10.6248 114.649 10.5799 114.611 10.542C114.574 10.5041 114.529 10.474 114.48 10.4534C114.43 10.4328 114.377 10.4221 114.324 10.422ZM90.476 18.168C90.433 17.202 89.666 16.451 88.58 16.451C87.388 16.451 86.62 17.181 86.493 18.168H90.476ZM88.644 14.241C91.2 14.241 93.159 16.151 93.159 18.833C93.159 18.983 93.139 19.326 93.117 19.477C93.1049 19.5954 93.0511 19.7057 92.9651 19.7881C92.8792 19.8706 92.7668 19.9198 92.648 19.927H86.344C86.365 21.15 87.366 22.223 88.794 22.223C89.774 22.223 90.454 21.858 90.902 21.493C91.136 21.3 91.392 21.279 91.541 21.493L92.371 22.609C92.542 22.802 92.563 23.039 92.329 23.253C91.3127 24.1341 90.0101 24.6148 88.665 24.605C85.726 24.605 83.682 22.245 83.682 19.412C83.682 16.623 85.726 14.242 88.644 14.242V14.241Z" fill="#141A26"/>
<mask id="mask0" mask-type="alpha" maskUnits="userSpaceOnUse" x="0" y="0" width="48" height="35">
<path d="M30.3035 0C20.7733 0 13.047 7.78322 13.047 17.385C13.047 26.9868 20.7733 34.77 30.3035 34.77C39.8338 34.77 47.56 26.9868 47.56 17.385C47.56 7.78322 39.8338 0 30.3035 0ZM30.3013 21.7329C27.9182 21.7329 25.9872 19.7866 25.9872 17.3872C25.9872 14.9857 27.9182 13.0393 30.3013 13.0393C32.6844 13.0393 34.6154 14.9857 34.6154 17.3872C34.6176 19.7866 32.6844 21.7329 30.3013 21.7329ZM0 17.3872C0 14.9857 1.931 13.0393 4.31412 13.0393C6.69724 13.0393 8.62824 14.9857 8.62824 17.3872C8.62824 19.7866 6.69502 21.7329 4.31412 21.7329C1.931 21.7329 0 19.7866 0 17.3872Z" fill="#F1F2F2"/>
</mask>
<g mask="url(#mask0)">
<path d="M24.0918 7.51189C7.12264 4.16405 -0.864166 7.64195 -0.864166 7.64195L-0.841894 12.1065C-0.841894 12.1065 7.14491 8.62858 24.1141 11.9764C41.0855 15.3243 48.3017 11.8509 48.3017 11.8509L48.2794 7.38632C48.2794 7.38632 41.0632 10.8597 24.0918 7.51189Z" fill="#DB3642"/>
<path d="M24.0963 3.06978C7.12712 -0.278059 -0.85968 3.19984 -0.85968 3.19984L-0.837408 7.66437C-0.837408 7.66437 7.14939 4.18648 24.1186 7.53432C41.09 10.8822 48.3061 7.40874 48.3061 7.40874L48.2839 2.94421C48.2839 2.94421 41.0677 6.41986 24.0963 3.06978Z" fill="#89655F"/>
<path d="M24.1008 -1.37008C7.13161 -4.71792 -0.855194 -1.24003 -0.855194 -1.24003L-0.832922 3.22451C-0.832922 3.22451 7.15388 -0.25339 24.123 3.09445C41.0944 6.44229 48.3106 2.96888 48.3106 2.96888L48.2884 -1.49566C48.2884 -1.49566 41.0722 1.97776 24.1008 -1.37008Z" fill="#303030"/>
<path d="M24.1165 11.9607C7.14507 8.61289 -0.841736 12.0908 -0.841736 12.0908L-0.819464 16.5553C-0.819464 16.5553 7.16734 13.0774 24.1365 16.4253C41.1079 19.7731 48.3241 16.2997 48.3241 16.2997L48.3018 11.8352C48.3018 11.8352 41.0856 15.3086 24.1165 11.9607Z" fill="#EE6749"/>
<path d="M24.1389 16.4096C7.16748 13.0617 -0.819321 16.5396 -0.819321 16.5396L-0.797049 21.0042C-0.797049 21.0042 7.18975 17.5263 24.1589 20.8741C41.1303 24.2219 48.3465 20.7485 48.3465 20.7485L48.3242 16.284C48.3265 16.284 41.108 19.7574 24.1389 16.4096Z" fill="#FBAF17"/>
<path d="M24.1613 20.8584C7.19215 17.5106 -0.794647 20.9885 -0.794647 20.9885L-0.772375 25.453C-0.772375 25.453 7.21443 21.9751 24.1836 25.323C41.155 28.6708 48.3712 25.1974 48.3712 25.1974L48.3489 20.7328C48.3489 20.7328 41.1327 24.2063 24.1613 20.8584Z" fill="#2E864D"/>
<path d="M24.1838 25.3073C7.21236 21.9594 -0.772217 25.4373 -0.772217 25.4373L-0.749945 29.9018C-0.749945 29.9018 7.23686 26.4239 24.206 29.7718C41.1774 33.1196 48.3936 29.6462 48.3936 29.6462L48.3713 25.1817C48.3713 25.1817 41.1551 28.6551 24.1838 25.3073Z" fill="#334EA1"/>
<path d="M24.2084 29.7561C7.23702 26.4083 -0.747559 29.8861 -0.747559 29.8861L-0.725286 34.3507C-0.725286 34.3507 7.26151 30.8728 24.2307 34.2206C41.2021 37.5685 48.4183 34.0951 48.4183 34.0951L48.396 29.6305C48.3938 29.6305 41.1776 33.1039 24.2084 29.7561Z" fill="#9A56A2"/>
</g>
</svg>
